<svg xmlns="http://www.w3.org/2000/svg" viewBox="0 0 512 512" style="enable-background:new 0 0 512 512" xml:space="preserve"><path style="fill:gold" d="M493.427 204.588 374.685 320.221l28.102 163.429-146.845-77.166-146.729 77.166 28.102-163.429L18.573 204.588l164.005-23.841L255.942 32.06l73.48 148.687z"/><path d="m97.732 499.448 30.299-176.21L0 198.56l176.84-25.706 79.097-160.301 79.219 160.301L512 198.56 383.969 323.237l30.298 176.203-158.324-83.197-158.211 83.205zm158.209-102.722 135.365 71.134-25.905-150.656 109.453-106.587-151.167-21.975-67.74-137.073-67.634 137.073-151.169 21.975 109.453 106.587-25.903 150.649 135.247-71.127z" fill="#7851a9"/></svg>